# Blender 5.1.0
# www.blender.org
mtllib sphere.mtl
o Cube
v -0.022625 -0.105197 0.022625
v -0.022625 -0.022625 0.105197
v -0.105197 -0.022625 0.022625
v -0.022625 -0.081012 0.081012
v -0.070298 -0.070298 0.070298
v -0.081012 -0.022625 0.081012
v -0.081012 -0.081012 0.022625
v -0.022625 0.022625 0.105197
v -0.022625 0.105197 0.022625
v -0.105197 0.022625 0.022625
v -0.022625 0.081012 0.081012
v -0.070298 0.070298 0.070298
v -0.081012 0.081012 0.022625
v -0.081012 0.022625 0.081012
v -0.022625 -0.105197 -0.022625
v -0.105197 -0.022625 -0.022625
v -0.022625 -0.022625 -0.105197
v -0.081012 -0.081012 -0.022625
v -0.070298 -0.070298 -0.070298
v -0.081012 -0.022625 -0.081012
v -0.022625 -0.081012 -0.081012
v -0.022625 0.105197 -0.022625
v -0.022625 0.022625 -0.105197
v -0.105197 0.022625 -0.022625
v -0.022625 0.081012 -0.081012
v -0.070298 0.070298 -0.070298
v -0.081012 0.022625 -0.081012
v -0.081012 0.081012 -0.022625
v 0.022625 -0.105197 0.022625
v 0.105197 -0.022625 0.022625
v 0.022625 -0.022625 0.105197
v 0.081012 -0.081012 0.022625
v 0.070298 -0.070298 0.070298
v 0.081012 -0.022625 0.081012
v 0.022625 -0.081012 0.081012
v 0.022625 0.105197 0.022625
v 0.022625 0.022625 0.105197
v 0.105197 0.022625 0.022625
v 0.022625 0.081012 0.081012
v 0.070298 0.070298 0.070298
v 0.081012 0.022625 0.081012
v 0.081012 0.081012 0.022625
v 0.022625 -0.105197 -0.022625
v 0.022625 -0.022625 -0.105197
v 0.105197 -0.022625 -0.022625
v 0.022625 -0.081012 -0.081012
v 0.070298 -0.070298 -0.070298
v 0.081012 -0.022625 -0.081012
v 0.081012 -0.081012 -0.022625
v 0.022625 0.105197 -0.022625
v 0.105197 0.022625 -0.022625
v 0.022625 0.022625 -0.105197
v 0.081012 0.081012 -0.022625
v 0.070298 0.070298 -0.070298
v 0.081012 0.022625 -0.081012
v 0.022625 0.081012 -0.081012
vn -0.1794 -0.9673 0.1794
vn -0.1794 -0.1794 0.9673
vn -0.9673 -0.1794 0.1794
vn -0.1726 -0.6965 0.6965
vn -0.5774 -0.5774 0.5774
vn -0.6965 -0.1726 0.6965
vn -0.6965 -0.6965 0.1726
vn -0.1794 0.1794 0.9673
vn -0.1794 0.9673 0.1794
vn -0.9673 0.1794 0.1794
vn -0.1726 0.6965 0.6965
vn -0.5774 0.5774 0.5774
vn -0.6965 0.6965 0.1726
vn -0.6965 0.1726 0.6965
vn -0.1794 -0.9673 -0.1794
vn -0.9673 -0.1794 -0.1794
vn -0.1794 -0.1794 -0.9673
vn -0.6965 -0.6965 -0.1726
vn -0.5774 -0.5774 -0.5774
vn -0.6965 -0.1726 -0.6965
vn -0.1726 -0.6965 -0.6965
vn -0.1794 0.9673 -0.1794
vn -0.1794 0.1794 -0.9673
vn -0.9673 0.1794 -0.1794
vn -0.1726 0.6965 -0.6965
vn -0.5774 0.5774 -0.5774
vn -0.6965 0.1726 -0.6965
vn -0.6965 0.6965 -0.1726
vn 0.1794 -0.9673 0.1794
vn 0.9673 -0.1794 0.1794
vn 0.1794 -0.1794 0.9673
vn 0.6965 -0.6965 0.1726
vn 0.5774 -0.5774 0.5774
vn 0.6965 -0.1726 0.6965
vn 0.1726 -0.6965 0.6965
vn 0.1794 0.9673 0.1794
vn 0.1794 0.1794 0.9673
vn 0.9673 0.1794 0.1794
vn 0.1726 0.6965 0.6965
vn 0.5774 0.5774 0.5774
vn 0.6965 0.1726 0.6965
vn 0.6965 0.6965 0.1726
vn 0.1794 -0.9673 -0.1794
vn 0.1794 -0.1794 -0.9673
vn 0.9673 -0.1794 -0.1794
vn 0.1726 -0.6965 -0.6965
vn 0.5774 -0.5774 -0.5774
vn 0.6965 -0.1726 -0.6965
vn 0.6965 -0.6965 -0.1726
vn 0.1794 0.9673 -0.1794
vn 0.9673 0.1794 -0.1794
vn 0.1794 0.1794 -0.9673
vn 0.6965 0.6965 -0.1726
vn 0.5774 0.5774 -0.5774
vn 0.6965 0.1726 -0.6965
vn 0.1726 0.6965 -0.6965
vt 0.135403 0.670828
vt 0.088641 0.689606
vt 0.077800 0.662607
vt 0.116626 0.624066
vt 0.064097 0.837823
vt 0.017335 0.856601
vt 0.006494 0.829602
vt 0.045320 0.791061
vt 0.447175 0.684000
vt 0.428398 0.637237
vt 0.455396 0.626396
vt 0.493938 0.665222
vt 0.074387 0.863449
vt 0.093165 0.910212
vt 0.066166 0.921053
vt 0.027625 0.882226
vt 0.241383 0.934755
vt 0.260160 0.981518
vt 0.233161 0.992359
vt 0.194620 0.953533
vt 0.457465 0.709625
vt 0.504228 0.690848
vt 0.515069 0.717847
vt 0.476243 0.756388
vt 0.161029 0.660538
vt 0.142252 0.613776
vt 0.169250 0.602935
vt 0.207792 0.641761
vt 0.421550 0.694290
vt 0.374787 0.713067
vt 0.350096 0.680155
vt 0.402772 0.647527
vt 0.328025 0.731844
vt 0.309247 0.685082
vt 0.267008 0.924465
vt 0.313771 0.905688
vt 0.324612 0.932687
vt 0.285786 0.971228
vt 0.338314 0.757470
vt 0.385077 0.738693
vt 0.409768 0.771605
vt 0.357092 0.804233
vt 0.431839 0.719915
vt 0.450617 0.766678
vt 0.145693 0.696454
vt 0.164471 0.743216
vt 0.120354 0.768582
vt 0.084938 0.748001
vt 0.183248 0.789979
vt 0.136486 0.808756
vt 0.089723 0.827533
vt 0.231093 0.909130
vt 0.151560 0.913914
vt 0.172141 0.878499
vt 0.212315 0.862367
vt 0.100013 0.853159
vt 0.146775 0.834382
vt 0.193538 0.815605
vt 0.171319 0.686164
vt 0.250852 0.681379
vt 0.230271 0.716795
vt 0.190096 0.732926
vt 0.302399 0.742134
vt 0.255636 0.760912
vt 0.208874 0.779689
vt 0.256718 0.898840
vt 0.237941 0.852077
vt 0.282058 0.826712
vt 0.317473 0.847292
vt 0.219164 0.805315
vt 0.265926 0.786537
vt 0.312689 0.767760
s 1
usemtl intestine_sphere
f 1/1/1 4/2/4 5/3/5 7/4/7
f 2/5/2 6/6/6 5/7/5 4/8/4
f 3/9/3 7/10/7 5/11/5 6/12/6
f 8/13/8 11/14/11 12/15/12 14/16/14
f 9/17/9 13/18/13 12/19/12 11/20/11
f 10/21/10 14/22/14 12/23/12 13/24/13
f 15/25/15 18/26/18 19/27/19 21/28/21
f 16/29/16 20/30/20 19/31/19 18/32/18
f 17/33/17 21/34/21 19/31/19 20/30/20
f 22/35/22 25/36/25 26/37/26 28/38/28
f 23/39/23 27/40/27 26/41/26 25/42/25
f 24/43/24 28/44/28 26/41/26 27/40/27
f 29/45/29 32/46/32 33/47/33 35/48/35
f 30/49/30 34/50/34 33/47/33 32/46/32
f 31/51/31 35/48/35 33/47/33 34/50/34
f 36/52/36 39/53/39 40/54/40 42/55/42
f 37/56/37 41/57/41 40/54/40 39/53/39
f 38/58/38 42/55/42 40/54/40 41/57/41
f 43/59/43 46/60/46 47/61/47 49/62/49
f 44/63/44 48/64/48 47/61/47 46/60/46
f 45/65/45 49/62/49 47/61/47 48/64/48
f 50/66/50 53/67/53 54/68/54 56/69/56
f 51/70/51 55/71/55 54/68/54 53/67/53
f 52/72/52 56/69/56 54/68/54 55/71/55
f 15/25/15 1/1/1 7/4/7 18/26/18
f 18/32/18 7/10/7 3/9/3 16/29/16
f 2/5/2 8/13/8 14/16/14 6/6/6
f 6/12/6 14/22/14 10/21/10 3/9/3
f 9/17/9 22/35/22 28/38/28 13/18/13
f 13/24/13 28/44/28 24/43/24 10/21/10
f 23/39/23 17/33/17 20/30/20 27/40/27
f 27/40/27 20/30/20 16/29/16 24/43/24
f 43/59/43 15/25/15 21/28/21 46/60/46
f 46/60/46 21/34/21 17/33/17 44/63/44
f 22/35/22 50/66/50 56/69/56 25/36/25
f 25/42/25 56/69/56 52/72/52 23/39/23
f 51/70/51 45/65/45 48/64/48 55/71/55
f 55/71/55 48/64/48 44/63/44 52/72/52
f 29/45/29 43/59/43 49/62/49 32/46/32
f 32/46/32 49/62/49 45/65/45 30/49/30
f 50/66/50 36/52/36 42/55/42 53/67/53
f 53/67/53 42/55/42 38/58/38 51/70/51
f 37/56/37 31/51/31 34/50/34 41/57/41
f 41/57/41 34/50/34 30/49/30 38/58/38
f 1/1/1 29/45/29 35/48/35 4/2/4
f 4/8/4 35/48/35 31/51/31 2/5/2
f 36/52/36 9/17/9 11/20/11 39/53/39
f 39/53/39 11/14/11 8/13/8 37/56/37
f 15/25/15 43/59/43 29/45/29 1/1/1
f 3/9/3 10/21/10 24/43/24 16/29/16
f 31/51/31 37/56/37 8/13/8 2/5/2
f 50/66/50 22/35/22 9/17/9 36/52/36
f 17/33/17 23/39/23 52/72/52 44/63/44
f 45/65/45 51/70/51 38/58/38 30/49/30
